<svg xmlns="http://www.w3.org/2000/svg" viewBox="0 5 300 285" width="300" height="285">
  <defs>
    <linearGradient id="shieldFillI" x1="20%" y1="0%" x2="80%" y2="100%">
      <stop offset="0%" stop-color="#1e5aa0"/>
      <stop offset="100%" stop-color="#0b2040"/>
    </linearGradient>
    <linearGradient id="shieldBorderI" x1="0%" y1="0%" x2="100%" y2="100%">
      <stop offset="0%" stop-color="#2e7ad4"/>
      <stop offset="100%" stop-color="#1a4a8c"/>
    </linearGradient>
    <linearGradient id="irisGradI" x1="20%" y1="10%" x2="80%" y2="90%">
      <stop offset="0%" stop-color="#7ee8ff"/>
      <stop offset="40%" stop-color="#22c5ee"/>
      <stop offset="100%" stop-color="#0077cc"/>
    </linearGradient>
    <clipPath id="irisClipI">
      <path d="M68,140 Q150,85 232,140 Q150,195 68,140 Z"/>
    </clipPath>
  </defs>

  <!-- Outer glow/border layer -->
  <path d="M150,10 L264,46 C266,88 265,142 252,180 C229,238 193,270 150,290 C107,270 71,238 48,180 C35,142 34,88 36,46 Z"
        fill="url(#shieldBorderI)" opacity="0.35"/>

  <!-- Shield body -->
  <path d="M150,18 L256,52 C258,91 257,140 245,176 C223,232 189,262 150,281 C111,262 77,232 55,176 C43,140 42,91 44,52 Z"
        fill="url(#shieldFillI)"/>

  <!-- Shield inner border stroke -->
  <path d="M150,18 L256,52 C258,91 257,140 245,176 C223,232 189,262 150,281 C111,262 77,232 55,176 C43,140 42,91 44,52 Z"
        fill="none" stroke="#2a6abf" stroke-width="4"/>

  <!-- Shield subtle highlight -->
  <path d="M150,18 L85,38 C58,52 42,91 44,52 L150,18 Z"
        fill="rgba(255,255,255,0.07)"/>

  <!-- B-curve swoosh -->
  <path d="M208,26 Q272,58 272,105 Q272,154 218,168"
        fill="none" stroke="#3a80cc" stroke-width="14" stroke-linecap="round" opacity="0.65"/>
  <path d="M208,26 Q272,58 272,105 Q272,154 218,168"
        fill="none" stroke="#6aacf0" stroke-width="6" stroke-linecap="round" opacity="0.45"/>

  <!-- Eye sclera -->
  <path d="M68,140 Q150,85 232,140 Q150,195 68,140 Z" fill="white"/>

  <!-- Iris -->
  <circle cx="150" cy="140" r="46" fill="url(#irisGradI)" clip-path="url(#irisClipI)"/>

  <!-- Globe grid -->
  <g clip-path="url(#irisClipI)" opacity="0.22">
    <line x1="68" y1="123" x2="232" y2="123" stroke="white" stroke-width="1"/>
    <line x1="68" y1="157" x2="232" y2="157" stroke="white" stroke-width="1"/>
    <ellipse cx="150" cy="140" rx="18" ry="46" fill="none" stroke="white" stroke-width="1"/>
    <ellipse cx="150" cy="140" rx="36" ry="46" fill="none" stroke="white" stroke-width="1"/>
    <ellipse cx="150" cy="140" rx="46" ry="16" fill="none" stroke="white" stroke-width="1"/>
  </g>

  <!-- Pupil -->
  <circle cx="150" cy="140" r="21" fill="#071525" clip-path="url(#irisClipI)"/>

  <!-- Highlights -->
  <ellipse cx="158" cy="129" rx="10" ry="6" fill="white" opacity="0.82" clip-path="url(#irisClipI)"/>
  <circle cx="165" cy="137" r="3" fill="white" opacity="0.45" clip-path="url(#irisClipI)"/>

  <!-- Network nodes -->
  <line x1="106" y1="220" x2="150" y2="240" stroke="rgba(255,255,255,0.72)" stroke-width="2.5"/>
  <line x1="194" y1="220" x2="150" y2="240" stroke="rgba(255,255,255,0.72)" stroke-width="2.5"/>
  <line x1="106" y1="220" x2="194" y2="220" stroke="rgba(255,255,255,0.72)" stroke-width="2.5"/>
  <circle cx="106" cy="220" r="5.5" fill="white" opacity="0.9"/>
  <circle cx="150" cy="240" r="5.5" fill="white" opacity="0.9"/>
  <circle cx="194" cy="220" r="5.5" fill="white" opacity="0.9"/>
</svg>
